<svg enable-background="new 0 0 100 100" viewBox="0 0 100 100" xmlns="http://www.w3.org/2000/svg">
  <path
    d="m 58.6 52.6 h 20.1 c -6.5 8.9 -18.5 15.7 -27.8 23.5 -9.3 -8 -21.3 -14.7 -27.7 -23.6 h 18.4 l 1.7 -7.9 5.1 23.9 3.6 -15.7 1.8 7.7 3.4 -12.8 z m -15.3 -18 l 5.1 24.3 3.5 -15.4 2 8.5 3.2 -12 3 10.6 h 19.9 c 2 -3.3 3.2 -6.9 3.2 -11 0 -8.7 -7.2 -15.7 -16.1 -15.7 -8.2 0 -16.1 6.1 -16.1 10.7 0 -4.6 -7.9 -10.8 -16.1 -10.8 -8.9 0 -16.1 7 -16.2 15.7 0 4 1.2 7.6 3.2 11 h 18.1 z m 44.8 16 h -8.1 c -.4 .7 -.9 1.4 -1.4 2.1 h 9.5 z m -74.3 -.1 v 2.1 h 9.4 c -.5 -.7 -1 -1.4 -1.4 -2.1 z"
    fill="#fff"/>
</svg>
